PathFileType  4	(X/Y/Z) C:\Users\hpl\Documents\MyRepositories\mocap-processing\Data\treadmill\Subject1\Edited\
DataRate	CameraRate	NumFrames	NumMarkers	Units	OrigDataRate	OrigDataStartFrame	OrigNumFrames
   50.0		   50.0		   5		     34		 mm	   50.0	      394	   3148
Frame#	Time	r_knee			r_shank(antsup)			r_ankle			r_calc			r_5meta			r_toe			L_knee			L_shank(ant_sup)			L_ankle			L_calc			L_5meta			L_toe			r_sh2			r_sh3			r_sh4			L_sh2			L_sh3			r_thigh1			r_thigh2			r_thigh3			r_thigh4			r_thigh5			L_thigh1			L_thigh2			L_thigh3			L_thigh4			r.ASIS			r.PSIS			L.ASIS			L.PSIS			C7			R_Shoulder			L_Shoulder			Sternum			
		X1	Y1	Z1	X2	Y2	Z2	X3	Y3	Z3	X4	Y4	Z4	X5	Y5	Z5	X6	Y6	Z6	X7	Y7	Z7	X8	Y8	Z8	X9	Y9	Z9	X10	Y10	Z10	X11	Y11	Z11	X12	Y12	Z12	X13	Y13	Z13	X14	Y14	Z14	X15	Y15	Z15	X16	Y16	Z16	X17	Y17	Z17	X18	Y18	Z18	X19	Y19	Z19	X20	Y20	Z20	X21	Y21	Z21	X22	Y22	Z22	X23	Y23	Z23	X24	Y24	Z24	X25	Y25	Z25	X26	Y26	Z26	X27	Y27	Z27	X28	Y28	Z28	X29	Y29	Z29	X30	Y30	Z30	X31	Y31	Z31	X32	Y32	Z32	X33	Y33	Z33	X34	Y34	Z34	

394	7.86000	755.374	574.764	-418.047	753.737	484.910	-416.393	654.397	115.649	-464.736	563.511	81.508	-513.524	759.525	38.986	-442.539	801.082	72.526	-503.536	1027.001	581.228	-713.434	1082.777	479.405	-716.135	1117.467	121.995	-694.751	1062.192	69.394	-629.612	1285.408	126.166	-686.034	1249.916	74.304	-732.533	732.828	367.057	-424.807	678.820	496.133	-418.406	650.376	383.669	-425.752	991.841	470.709	-718.416	1018.823	350.882	-714.463	877.971	888.443	-381.428	868.201	773.882	-389.815	817.323	745.643	-383.661	764.650	892.244	-373.395	759.035	776.685	-392.086	995.973	858.737	-726.366	1056.056	733.950	-722.833	889.322	810.266	-746.409	950.088	692.921	-730.941	921.792	1087.230	-421.566	737.742	1112.237	-522.480	936.365	1093.162	-675.115	745.007	1107.608	-604.634	837.810	1601.353	-553.569	894.678	1569.441	-394.924	887.746	1553.051	-738.597	972.984	1515.720	-558.646
395	7.88000	742.124	574.427	-419.123	738.328	484.429	-417.140	630.538	117.321	-465.021	539.355	83.947	-513.830	734.770	39.027	-442.550	777.018	71.793	-503.479	1013.167	572.518	-710.082	1080.259	478.070	-714.088	1150.424	123.843	-699.948	1100.369	63.740	-637.251	1317.367	146.189	-686.980	1288.044	91.612	-735.023	714.477	366.945	-425.308	663.749	497.433	-419.515	632.616	385.689	-426.737	990.880	460.963	-715.896	1029.546	343.713	-714.752	873.274	884.594	-381.651	859.554	770.615	-390.492	808.211	744.110	-384.491	760.076	892.109	-375.444	750.825	776.725	-393.990	986.580	846.446	-728.167	1040.271	718.567	-723.859	877.374	803.153	-741.633	935.409	680.090	-729.529	923.083	1082.429	-423.981	738.875	1108.402	-524.643	936.484	1087.639	-677.817	745.814	1103.388	-607.200	838.478	1596.530	-554.539	895.466	1563.951	-396.274	887.796	1548.961	-740.127	973.617	1511.021	-560.311
396	7.90000	733.213	573.317	-419.877	726.932	483.309	-417.691	607.410	119.407	-465.066	515.570	87.338	-513.520	709.592	38.784	-442.650	752.835	70.858	-503.499	998.990	565.482	-710.925	1075.982	476.665	-711.457	1172.785	129.012	-699.911	1125.658	60.625	-642.577	1336.708	163.255	-681.620	1313.125	110.498	-734.485	699.534	366.537	-425.713	652.715	498.402	-419.650	618.413	387.684	-426.632	988.006	453.749	-715.157	1035.551	338.050	-716.567	870.349	880.827	-382.326	853.908	767.436	-391.473	801.692	742.246	-385.422	757.388	891.148	-377.346	745.233	776.204	-395.608	978.788	836.281	-731.326	1028.319	707.031	-725.403	867.594	796.214	-739.330	921.601	671.744	-722.104	924.646	1077.733	-426.306	740.001	1104.637	-527.101	936.687	1082.396	-680.319	746.353	1098.911	-609.674	839.208	1591.606	-556.286	896.425	1558.094	-397.958	887.850	1544.455	-742.118	974.550	1506.273	-562.527
397	7.92000	728.563	571.095	-420.074	719.424	481.002	-417.823	585.246	121.985	-464.113	492.024	91.883	-512.124	684.888	38.555	-442.549	728.950	69.767	-503.338	997.525	562.097	-711.156	1073.237	471.520	-713.329	1174.178	125.076	-695.674	1129.497	55.329	-638.078	1335.845	166.986	-675.754	1315.928	111.915	-727.541	688.131	365.826	-425.618	645.775	498.741	-418.306	607.470	389.376	-425.059	985.114	447.684	-715.675	1032.527	333.397	-713.327	869.765	876.931	-383.275	851.767	763.951	-392.404	799.200	739.368	-386.192	756.857	888.897	-378.738	743.180	774.057	-396.508	976.935	832.331	-736.541	1025.939	702.766	-728.844	865.784	793.254	-739.868	918.791	668.972	-721.133	926.027	1073.527	-428.271	740.670	1100.493	-529.155	935.315	1077.542	-682.640	745.746	1094.630	-612.128	840.257	1587.076	-558.392	897.640	1552.425	-399.851	888.014	1539.943	-744.626	975.854	1501.785	-565.303
398	7.94000	727.092	567.999	-420.429	715.181	477.906	-418.128	563.668	125.076	-461.670	469.103	97.621	-509.268	660.391	38.083	-441.957	705.235	68.656	-502.679	1006.282	562.706	-710.096	1075.377	467.149	-712.269	1160.076	117.978	-692.537	1109.554	56.117	-637.492	1323.963	151.106	-667.652	1303.624	95.502	-718.973	678.691	363.651	-425.494	642.249	498.562	-416.435	599.378	390.939	-422.470	985.899	447.884	-713.195	1028.280	331.419	-710.699	871.428	872.887	-385.871	852.800	759.454	-393.811	800.611	735.606	-386.876	758.750	885.236	-379.573	744.298	770.299	-396.521	979.512	834.201	-739.948	1031.667	705.918	-732.966	869.334	792.402	-743.500	925.962	669.436	-725.620	927.791	1069.663	-431.105	741.673	1096.095	-530.374	934.225	1074.886	-686.210	744.988	1090.844	-613.387	841.977	1583.410	-560.965	899.786	1547.854	-401.976	887.384	1536.244	-747.435	977.335	1497.807	-568.489
